<?xml version="1.0" encoding="UTF-8"?>
<!DOCTYPE svg PUBLIC "-//W3C//DTD SVG 1.1//EN" "http://www.w3.org/Graphics/SVG/1.1/DTD/svg11.dtd">
<!-- Creator: CorelDRAW X7 -->
<svg xmlns="http://www.w3.org/2000/svg" xml:space="preserve" width="64.4294mm" height="55.9159mm" version="1.1" style="shape-rendering:geometricPrecision; text-rendering:geometricPrecision; image-rendering:optimizeQuality; fill-rule:evenodd; clip-rule:evenodd"
viewBox="0 0 386 335"
 xmlns:xlink="http://www.w3.org/1999/xlink">
 <defs>
  <style type="text/css">
   <![CDATA[
    .str0 {stroke:#FEFEFE;stroke-width:4.0526}
    .fil0 {fill:none}
    .fil2 {fill:#118BCC}
    .fil1 {fill:#545455}
   ]]>
  </style>
 </defs>
 <g id="Capa_x0020_1">
  <metadata id="CorelCorpID_0Corel-Layer"/>
  <g>
   <path class="fil0 str0" d="M20 51c29,1 57,2 86,2 -6,3 -12,6 -19,9 -9,17 -17,35 -22,53 -34,106 50,137 68,76 -3,-21 -6,-42 -10,-63 4,-2 8,-3 12,-4 -4,-3 -8,-5 -12,-7 0,-19 0,-38 1,-58 -4,-2 -7,-4 -11,-7 20,0 40,0 59,1 7,0 13,-2 21,-3 -3,5 -7,10 -9,17 -14,44 -22,128 12,143 4,2 15,-6 26,-19l0 91c-8,0 -16,-1 -24,-1 -15,-12 -29,-25 -44,-37 -40,29 -103,26 -127,9 -16,-12 -26,-35 -25,-67 1,-31 13,-72 31,-121 -5,-5 -9,-9 -13,-14zm240 51c1,-40 -25,-79 -111,-95 120,-21 164,30 163,93 -18,2 -35,3 -52,2zm45 38c-4,16 -11,31 -20,46l-15 -9c1,-12 1,-24 2,-36 1,-1 3,-2 4,-3l29 2z"/>
   <path id="1" class="fil1" d="M20 51c29,1 57,2 86,2 -6,3 -12,6 -19,9 -9,17 -17,35 -22,53 -34,106 50,137 68,76 -3,-21 -6,-42 -10,-63 4,-2 8,-3 12,-4 -4,-3 -8,-5 -12,-7 0,-19 0,-38 1,-58 -4,-2 -7,-4 -11,-7 20,0 40,0 59,1 7,0 13,-2 21,-3 -3,5 -7,10 -9,17 -14,44 -22,128 12,143 4,2 15,-6 26,-19l0 91c-8,0 -16,-1 -24,-1 -15,-12 -29,-25 -44,-37 -40,29 -103,26 -127,9 -16,-12 -26,-35 -25,-67 1,-31 13,-72 31,-121 -5,-5 -9,-9 -13,-14zm240 51c1,-40 -25,-79 -111,-95 120,-21 164,30 163,93 -18,2 -35,3 -52,2zm45 38c-4,16 -11,31 -20,46l-15 -9c1,-12 1,-24 2,-36 1,-1 3,-2 4,-3l29 2z"/>
  </g>
  <g>
   <path class="fil0 str0" d="M176 143c16,-16 33,-32 49,-47 48,13 103,4 158,-9 -5,29 -9,57 -14,85 -4,-6 -9,-13 -13,-20 -4,-3 -9,-7 -13,-10 -22,-1 -44,-2 -67,-4 -1,1 -3,2 -4,3 -1,12 -1,24 -2,36 12,7 23,14 34,22 1,-6 2,-12 2,-18 1,-3 2,-6 4,-9 7,22 15,44 23,65 0,4 0,7 0,10 -21,-8 -42,-17 -64,-25 0,0 -3,47 3,79 3,21 20,27 17,30 -2,3 -83,0 -84,1 -2,1 17,-17 17,-17 0,-55 0,-110 0,-165 9,-6 17,-12 26,-18 -24,3 -48,7 -72,11z"/>
   <path id="1" class="fil2" d="M176 143c16,-16 33,-32 49,-47 48,13 103,4 158,-9 -5,29 -9,57 -14,85 -4,-6 -9,-13 -13,-20 -4,-3 -9,-7 -13,-10 -22,-1 -44,-2 -67,-4 -1,1 -3,2 -4,3 -1,12 -1,24 -2,36 12,7 23,14 34,22 1,-6 2,-12 2,-18 1,-3 2,-6 4,-9 7,22 15,44 23,65 0,4 0,7 0,10 -21,-8 -42,-17 -64,-25 0,0 -3,47 3,79 3,21 20,27 17,30 -2,3 -83,0 -84,1 -2,1 17,-17 17,-17 0,-55 0,-110 0,-165 9,-6 17,-12 26,-18 -24,3 -48,7 -72,11z"/>
  </g>
 </g>
</svg>
